<svg width="14" height="15" viewBox="0 0 14 15" fill="none" xmlns="http://www.w3.org/2000/svg">
<path d="M5.625 0C4.59375 0 3.75 0.84375 3.75 1.875H1.875C0.84375 1.875 0 2.71875 0 3.75H13.125C13.125 2.71875 12.2812 1.875 11.25 1.875H9.375C9.375 0.84375 8.53125 0 7.5 0H5.625ZM1.875 5.625V14.6438C1.875 14.85 2.025 15 2.23125 15H10.9125C11.1188 15 11.2688 14.85 11.2688 14.6438V5.625H9.39375V12.1875C9.39375 12.7125 8.98125 13.125 8.45625 13.125C7.93125 13.125 7.51875 12.7125 7.51875 12.1875V5.625H5.64375V12.1875C5.64375 12.7125 5.23125 13.125 4.70625 13.125C4.18125 13.125 3.76875 12.7125 3.76875 12.1875V5.625H1.89375H1.875Z" fill="#DC143C"/>
</svg>
