<svg width="15" height="15" viewBox="0 0 15 15" fill="none" xmlns="http://www.w3.org/2000/svg">
<path d="M11.875 12.5H3.125C2.95924 12.5 2.80027 12.5658 2.68306 12.6831C2.56585 12.8003 2.5 12.9592 2.5 13.125C2.5 13.2908 2.56585 13.4497 2.68306 13.5669C2.80027 13.6842 2.95924 13.75 3.125 13.75H11.875C12.0408 13.75 12.1997 13.6842 12.3169 13.5669C12.4342 13.4497 12.5 13.2908 12.5 13.125C12.5 12.9592 12.4342 12.8003 12.3169 12.6831C12.1997 12.5658 12.0408 12.5 11.875 12.5Z" fill="#FF8C00" fill-opacity="0.9"/>
<path d="M3.12494 11.25H3.18119L5.78744 11.0125C6.07294 10.9841 6.33996 10.8583 6.54369 10.6563L12.1687 5.03128C12.387 4.80064 12.505 4.49285 12.4968 4.17537C12.4886 3.85789 12.3549 3.5566 12.1249 3.33753L10.4124 1.62503C10.1889 1.41509 9.89606 1.29463 9.58952 1.28657C9.28299 1.2785 8.98418 1.38339 8.74994 1.58128L3.12494 7.20628C2.92292 7.41001 2.79713 7.67704 2.76869 7.96253L2.49994 10.5688C2.49152 10.6603 2.5034 10.7526 2.53473 10.839C2.56606 10.9255 2.61607 11.0039 2.68119 11.0688C2.73959 11.1267 2.80885 11.1725 2.885 11.2036C2.96115 11.2347 3.04269 11.2505 3.12494 11.25ZM9.54369 2.50003L11.2499 4.20628L9.99994 5.42503L8.32494 3.75003L9.54369 2.50003ZM3.98119 8.06878L7.49994 4.57503L9.18744 6.26253L5.68744 9.76253L3.81244 9.93753L3.98119 8.06878Z" fill="#FF8C00" fill-opacity="0.9"/>
</svg>
